<svg width="52" height="52" viewBox="0 0 52 52" fill="none" xmlns="http://www.w3.org/2000/svg">
<path d="M12.5444 21.7772C13.5256 20.7302 14.9272 20.1021 16.469 20.1021H45.6226C48.6361 20.1021 51.0188 22.545 51.0188 25.4765V45.5786C51.0188 48.5799 48.566 50.9531 45.6226 50.9531H17.7304" stroke="#505050" stroke-width="2.691" stroke-miterlimit="10" stroke-linecap="round" stroke-linejoin="round"/>
<path d="M38.6147 20.1017V13.4011C38.6147 9.28295 35.2509 5.93262 31.1161 5.93262C26.9813 5.93262 23.6174 9.28295 23.6174 13.4011V20.1017" stroke="#505050" stroke-width="2.691" stroke-miterlimit="10" stroke-linecap="round" stroke-linejoin="round"/>
<path d="M18.5715 20.1019V13.4012C18.5715 6.56094 24.178 0.977051 31.0459 0.977051C37.9139 0.977051 43.5203 6.56094 43.5203 13.4012V20.1019" stroke="#505050" stroke-width="2.691" stroke-miterlimit="10" stroke-linecap="round" stroke-linejoin="round"/>
<path d="M30.7655 42.8564C29.7143 42.8564 28.8733 42.0188 28.8733 40.9718V36.5745C28.8733 36.4349 28.8032 36.2953 28.663 36.2255C26.9811 35.1087 26.1401 32.8752 27.0512 30.7812C27.6118 29.5248 28.7331 28.6174 30.0647 28.3382C32.8679 27.7799 35.3207 29.8738 35.3207 32.596C35.3207 34.0617 34.5498 35.4577 33.3585 36.2255C33.2183 36.2953 33.1482 36.4349 33.1482 36.5745V40.9718C33.1482 42.0188 32.3072 42.8564 31.256 42.8564H30.7655V42.8564Z" stroke="#505050" stroke-width="2.691" stroke-miterlimit="10" stroke-linecap="round" stroke-linejoin="round"/>
<path d="M11.0728 25.4067C11.0728 25.4067 5.53646 29.6645 0.981201 29.6645V40.4832C0.981201 42.7168 1.89225 44.741 3.43403 45.8577C5.04589 47.0443 9.88147 50.1853 10.0917 50.3249L11.0728 51.0228L12.054 50.3249C12.2642 50.1853 17.0998 47.0443 18.7117 45.8577C20.2534 44.741 21.1645 42.7168 21.1645 40.4832V29.6645C16.6092 29.6645 11.0728 25.4067 11.0728 25.4067Z" stroke="#505050" stroke-width="2.691" stroke-miterlimit="10" stroke-linecap="round" stroke-linejoin="round"/>
<path d="M6.93799 37.6213L10.3019 40.9716L15.8383 35.5273" stroke="#505050" stroke-width="2.691" stroke-miterlimit="10" stroke-linecap="round" stroke-linejoin="round"/>
</svg>
