<svg width="22" height="14" viewBox="0 0 22 14" fill="none" xmlns="http://www.w3.org/2000/svg">
<path d="M20.5009 0H1.50222C0.672213 0 0 0.644134 0 1.4348V12.5621C0 13.3559 0.672213 13.9969 1.49907 13.9969H20.4978C21.3278 13.9969 21.9968 13.3528 21.9968 12.5621V1.4348C22 0.644134 21.3278 0 20.5009 0Z" fill="#494949"/>
<path d="M6.45361 4.55768V3.61743H5.26382H3.63536H2.44873V4.55768H3.63536H5.26382H6.45361Z" fill="#D1D3D4"/>
<path d="M5.04911 4.76221H3.84985V5.9131H5.04911V4.76221Z" fill="#D1D3D4"/>
<path d="M5.04911 2.25903H3.84985V3.40993H5.04911V2.25903Z" fill="#D1D3D4"/>
<path d="M5.26392 4.76221V5.9131H6.01818C6.25803 5.9131 6.4537 5.72688 6.4537 5.49487V4.76221H5.26392Z" fill="#D1D3D4"/>
<path d="M5.26392 3.41286H6.4537V2.68019C6.4537 2.45123 6.25803 2.26196 6.01818 2.26196H5.26392V3.41286Z" fill="#D1D3D4"/>
<path d="M3.63536 4.76221H2.44873V5.49487C2.44873 5.72383 2.6444 5.9131 2.88425 5.9131H3.63851V4.76221H3.63536Z" fill="#D1D3D4"/>
<path d="M3.63536 3.41298V2.25903H2.88425C2.6444 2.25903 2.44873 2.44525 2.44873 2.67726V3.40993H3.63536V3.41298Z" fill="#D1D3D4"/>
<path d="M5.5893 10.01H2.30713V11.1548H5.5893V10.01Z" fill="#A7A9AC"/>
<path d="M10.2917 10.01H7.00952V11.1548H10.2917V10.01Z" fill="#A7A9AC"/>
<path d="M14.9941 10.01H11.7119V11.1548H14.9941V10.01Z" fill="#A7A9AC"/>
<path d="M19.6962 10.01H16.4141V11.1548H19.6962V10.01Z" fill="#A7A9AC"/>
</svg>
